<svg width="20" height="20" viewBox="0 0 20 20" fill="none" xmlns="http://www.w3.org/2000/svg">
<path fill-rule="evenodd" clip-rule="evenodd" d="M17.2917 18.2831H11.2476C10.9026 18.2831 10.6226 18.0031 10.6226 17.6581C10.6226 17.3131 10.9026 17.0331 11.2476 17.0331H17.2917C17.6367 17.0331 17.9167 17.3131 17.9167 17.6581C17.9167 18.0031 17.6367 18.2831 17.2917 18.2831Z" fill="#6D64F1"/>
<mask id="mask0_949_4399" style="mask-type:alpha" maskUnits="userSpaceOnUse" x="1" y="2" width="15" height="17">
<path fill-rule="evenodd" clip-rule="evenodd" d="M1.6665 2.50012H15.9837V18.2831H1.6665V2.50012Z" fill="white"/>
</mask>
<g mask="url(#mask0_949_4399)">
<path fill-rule="evenodd" clip-rule="evenodd" d="M10.9248 4.18067L3.07893 13.9932C2.93643 14.1715 2.88393 14.4015 2.93643 14.6223L3.50393 17.0265L6.03643 16.9948C6.27727 16.9923 6.49977 16.8848 6.64727 16.7015C9.3281 13.3473 14.4389 6.95233 14.5839 6.76483C14.7206 6.54317 14.7739 6.22983 14.7023 5.92817C14.6289 5.619 14.4364 5.3565 14.1589 5.189C14.0998 5.14817 12.6956 4.05817 12.6523 4.024C12.1239 3.60067 11.3531 3.674 10.9248 4.18067ZM3.0109 18.2832C2.72173 18.2832 2.47007 18.0848 2.40257 17.8023L1.72007 14.9098C1.57923 14.3107 1.71923 13.6923 2.1034 13.2123L9.9534 3.39399C9.95673 3.39066 9.95923 3.38649 9.96257 3.38316C10.8234 2.35399 12.3801 2.20232 13.4301 3.04482C13.4717 3.07732 14.8659 4.16066 14.8659 4.16066C15.3726 4.46232 15.7684 5.00149 15.9184 5.63982C16.0676 6.27149 15.9592 6.92316 15.6117 7.47399C15.5859 7.51482 15.5634 7.54982 7.6234 17.4832C7.2409 17.9598 6.66757 18.2373 6.05173 18.2448L3.01923 18.2832H3.0109Z" fill="#6D64F1"/>
</g>
<path fill-rule="evenodd" clip-rule="evenodd" d="M13.5194 9.73735C13.386 9.73735 13.2527 9.69485 13.1385 9.60818L8.59519 6.11818C8.32185 5.90818 8.27019 5.51652 8.48019 5.24152C8.69102 4.96818 9.08269 4.91735 9.35685 5.12735L13.901 8.61651C14.1744 8.82651 14.226 9.21901 14.0152 9.49318C13.8927 9.65318 13.7069 9.73735 13.5194 9.73735Z" fill="#6D64F1"/>
</svg>
