<svg width="48" height="48" viewBox="0 0 48 48" fill="none" xmlns="http://www.w3.org/2000/svg">
<path d="M20.4771 2.03397C22.6571 0.775344 25.3429 0.775344 27.5229 2.03397L41.2617 9.96603C43.4417 11.2247 44.7846 13.5507 44.7846 16.0679V31.9321C44.7846 34.4493 43.4417 36.7753 41.2617 38.034L27.5229 45.966C25.3429 47.2247 22.6571 47.2247 20.4771 45.966L6.73833 38.034C4.55833 36.7753 3.21539 34.4493 3.21539 31.9321V16.0679C3.21539 13.5507 4.55833 11.2247 6.73833 9.96603L20.4771 2.03397Z" fill="url(#paint0_linear_567_7601)"/>
<path d="M23.3937 12.6434C23.774 12.4469 24.2261 12.4469 24.6065 12.6434L34.9394 17.9821C35.8923 18.4744 35.8923 19.8371 34.9394 20.3295L24.6065 25.6681C24.2261 25.8647 23.7741 25.8647 23.3937 25.6681L13.0607 20.3295C12.1078 19.8371 12.1078 18.4744 13.0607 17.9821L23.3937 12.6434Z" fill="white"/>
<path opacity="0.6" d="M23.3937 17.4876C23.774 17.2911 24.2261 17.2911 24.6065 17.4876L34.9394 22.8263C35.8923 23.3186 35.8923 24.6814 34.9394 25.1737L24.6065 30.5124C24.2261 30.7089 23.7741 30.7089 23.3937 30.5124L13.0607 25.1737C12.1078 24.6814 12.1078 23.3186 13.0607 22.8263L23.3937 17.4876Z" fill="white"/>
<path opacity="0.2" d="M23.3937 22.3319C23.774 22.1353 24.2261 22.1353 24.6065 22.3319L34.9394 27.6705C35.8923 28.1629 35.8923 29.5256 34.9394 30.0179L24.6065 35.3566C24.2261 35.5532 23.7741 35.5532 23.3937 35.3566L13.0607 30.0179C12.1078 29.5256 12.1078 28.1629 13.0607 27.6705L23.3937 22.3319Z" fill="white"/>
<defs>
<linearGradient id="paint0_linear_567_7601" x1="5.06422" y1="0.770641" x2="46.4587" y2="46.8991" gradientUnits="userSpaceOnUse">
<stop stop-color="#75E5F3"/>
<stop offset="1" stop-color="#6A3BEF"/>
</linearGradient>
</defs>
</svg>
