<svg width="40" height="40" viewBox="0 0 40 40" fill="none" xmlns="http://www.w3.org/2000/svg">
<g id="Iconly">
<g id="Arrow - Right">
<path id="Stroke 1" d="M6.66699 19.5426C6.66699 18.9098 7.13725 18.3868 7.74737 18.304L7.91699 18.2926H32.917C33.6073 18.2926 34.167 18.8522 34.167 19.5426C34.167 20.1754 33.6967 20.6984 33.0866 20.7812L32.917 20.7926H7.91699C7.22664 20.7926 6.66699 20.233 6.66699 19.5426Z" fill="#2E2E2E"/>
<path id="Stroke 3" d="M21.952 10.3879C21.4628 9.90075 21.4611 9.1093 21.9482 8.6201C22.391 8.17536 23.0854 8.13353 23.5755 8.49556L23.716 8.61629L33.7993 18.6563C34.2454 19.1004 34.2859 19.7973 33.921 20.2874L33.7994 20.4278L23.716 30.4695C23.2269 30.9566 22.4354 30.955 21.9483 30.4658C21.5054 30.0211 21.4665 29.3266 21.8306 28.838L21.9519 28.698L31.1453 19.5416L21.952 10.3879Z" fill="#2E2E2E"/>
</g>
</g>
</svg>
