<svg width="20" height="20" viewBox="0 0 20 20" fill="none" xmlns="http://www.w3.org/2000/svg">
<mask id="mask0_1293_1296" style="mask-type:alpha" maskUnits="userSpaceOnUse" x="1" y="1" width="17" height="18">
<path fill-rule="evenodd" clip-rule="evenodd" d="M1.66699 1.66711H17.7377V18.9346H1.66699V1.66711Z" fill="white"/>
</mask>
<g mask="url(#mask0_1293_1296)">
<path fill-rule="evenodd" clip-rule="evenodd" d="M6.00251 14.5338C6.19334 14.5338 6.38418 14.5579 6.57084 14.6079C7.13418 14.7596 7.62334 15.1363 7.91334 15.6421C8.10168 15.9596 8.20584 16.3304 8.20918 16.7088C8.20918 17.2504 8.64418 17.6846 9.17918 17.6846H10.2233C10.7558 17.6846 11.1908 17.2529 11.1933 16.7204C11.19 16.1321 11.42 15.5729 11.8408 15.1521C12.2558 14.7371 12.8358 14.4879 13.4158 14.5046C13.7958 14.5138 14.1617 14.6163 14.4842 14.7996C14.9483 15.0654 15.5408 14.9071 15.8092 14.4488L16.3625 13.5263C16.4858 13.3138 16.5217 13.0471 16.4558 12.8013C16.3908 12.5554 16.2275 12.3421 16.0075 12.2163C15.4925 11.9196 15.125 11.4413 14.9725 10.8679C14.8217 10.3054 14.9042 9.69128 15.1983 9.18545C15.39 8.85211 15.6708 8.57128 16.0075 8.37795C16.4592 8.11378 16.6175 7.52295 16.355 7.06295C16.3442 7.04461 16.3342 7.02545 16.3258 7.00545L15.8375 6.15878C15.5717 5.69628 14.98 5.53711 14.5158 5.80128C14.0142 6.09795 13.4175 6.18295 12.8442 6.03211C12.2717 5.88378 11.7917 5.52128 11.4925 5.00961C11.3008 4.68961 11.1967 4.31711 11.1933 3.93795C11.2008 3.65295 11.1008 3.39711 10.9192 3.20961C10.7383 3.02295 10.4842 2.91711 10.2233 2.91711H9.17918C8.92084 2.91711 8.67918 3.01795 8.49668 3.19961C8.31501 3.38211 8.21584 3.62461 8.21751 3.88295C8.20001 5.10128 7.20418 6.08211 5.99834 6.08211C5.61168 6.07795 5.23918 5.97378 4.91584 5.78045C4.46168 5.52211 3.86834 5.68128 3.60251 6.14378L3.03834 7.07128C2.78001 7.51961 2.93834 8.11211 3.39834 8.37961C4.08084 8.77461 4.50668 9.51128 4.50668 10.3013C4.50668 11.0913 4.08084 11.8271 3.39668 12.2229C2.93918 12.4879 2.78084 13.0771 3.04584 13.5354L3.57168 14.4421C3.70168 14.6763 3.91418 14.8454 4.16001 14.9146C4.40501 14.9829 4.67501 14.9538 4.90001 14.8288C5.23084 14.6346 5.61584 14.5338 6.00251 14.5338M10.2231 18.9346H9.17893C7.95476 18.9346 6.95893 17.9396 6.95893 16.7154C6.95726 16.5646 6.91393 16.4079 6.83309 16.2721C6.70226 16.0438 6.49059 15.8804 6.24643 15.8154C6.00393 15.7504 5.73809 15.7863 5.51976 15.9129C4.99643 16.2046 4.38059 16.2754 3.81726 16.1171C3.25476 15.9579 2.76893 15.5713 2.48393 15.0588L1.96309 14.1613C1.35393 13.1046 1.71643 11.7504 2.77143 11.1404C3.07059 10.9679 3.25643 10.6463 3.25643 10.3013C3.25643 9.95628 3.07059 9.63378 2.77143 9.46128C1.71559 8.84795 1.35393 7.49045 1.96226 6.43378L2.52726 5.50628C3.12809 4.46128 4.48643 4.09295 5.54559 4.70128C5.68976 4.78711 5.84643 4.83045 6.00559 4.83211C6.52476 4.83211 6.95893 4.40378 6.96726 3.87711C6.96393 3.29628 7.19309 2.73878 7.61059 2.31795C8.02976 1.89795 8.58643 1.66711 9.17893 1.66711H10.2231C10.8198 1.66711 11.3998 1.91211 11.8156 2.33795C12.2306 2.76628 12.4598 3.35378 12.4423 3.94961C12.4439 4.08378 12.4881 4.23878 12.5681 4.37461C12.7006 4.59961 12.9098 4.75795 13.1581 4.82295C13.4064 4.88461 13.6664 4.85128 13.8873 4.72045C14.9539 4.11128 16.3114 4.47628 16.9206 5.53461L17.4398 6.43378C17.4531 6.45795 17.4648 6.48128 17.4748 6.50545C18.0264 7.54795 17.6581 8.86045 16.6331 9.45961C16.4839 9.54545 16.3631 9.66545 16.2798 9.81045C16.1506 10.0346 16.1148 10.3013 16.1798 10.5463C16.2464 10.7963 16.4056 11.0038 16.6298 11.1321C17.1356 11.4229 17.5131 11.9129 17.6639 12.4788C17.8148 13.0438 17.7323 13.6571 17.4381 14.1629L16.8848 15.0846C16.2756 16.1313 14.9181 16.4938 13.8623 15.8838C13.7214 15.8029 13.5589 15.7588 13.3973 15.7546H13.3923C13.1514 15.7546 12.9039 15.8571 12.7239 16.0363C12.5414 16.2188 12.4414 16.4621 12.4431 16.7204C12.4373 17.9446 11.4414 18.9346 10.2231 18.9346" fill="#2E2E2E"/>
</g>
<path fill-rule="evenodd" clip-rule="evenodd" d="M9.70448 8.72888C8.83781 8.72888 8.13281 9.43471 8.13281 10.3014C8.13281 11.168 8.83781 11.8722 9.70448 11.8722C10.5711 11.8722 11.2761 11.168 11.2761 10.3014C11.2761 9.43471 10.5711 8.72888 9.70448 8.72888M9.70448 13.1222C8.14865 13.1222 6.88281 11.8572 6.88281 10.3014C6.88281 8.74555 8.14865 7.47888 9.70448 7.47888C11.2603 7.47888 12.5261 8.74555 12.5261 10.3014C12.5261 11.8572 11.2603 13.1222 9.70448 13.1222" fill="#2E2E2E"/>
</svg>
