<svg width="24" height="24" viewBox="0 0 24 24" fill="none" xmlns="http://www.w3.org/2000/svg">
<path d="M16.8389 5.79639C17.2186 5.79639 17.5324 6.07854 17.582 6.44462L17.5889 6.54639V20.1642C17.5889 20.5784 17.2531 20.9142 16.8389 20.9142C16.4592 20.9142 16.1454 20.632 16.0957 20.2659L16.0889 20.1642V6.54639C16.0889 6.13217 16.4247 5.79639 16.8389 5.79639Z" fill="#6D64F1"/>
<path d="M20.3847 15.539C20.677 15.2454 21.1518 15.2443 21.4454 15.5366C21.7123 15.8022 21.7375 16.2188 21.5203 16.5129L21.4479 16.5972L17.3701 20.6939C17.1036 20.9616 16.6853 20.986 16.3912 20.7669L16.307 20.6939L12.2292 16.5972C11.937 16.3036 11.9381 15.8288 12.2316 15.5366C12.4985 15.2709 12.9152 15.2477 13.2083 15.4662L13.2923 15.539L16.8381 19.101L20.3847 15.539Z" fill="#6D64F1"/>
<path d="M6.91113 3.08276C7.29083 3.08276 7.60462 3.36492 7.65429 3.73099L7.66113 3.83276V17.4505C7.66113 17.8648 7.32535 18.2005 6.91113 18.2005C6.53144 18.2005 6.21764 17.9184 6.16798 17.5523L6.16113 17.4505V3.83276C6.16113 3.41855 6.49692 3.08276 6.91113 3.08276Z" fill="#6D64F1"/>
<path d="M6.37923 3.30317C6.64575 3.03542 7.064 3.01108 7.35811 3.23015L7.44234 3.30317L11.5201 7.39984C11.8123 7.69341 11.8112 8.16828 11.5177 8.4605C11.2508 8.72615 10.8341 8.74939 10.541 8.53086L10.457 8.45805L6.91056 4.89494L3.36456 8.45805C3.09891 8.72493 2.6823 8.7501 2.38819 8.53292L2.3039 8.4605C2.03702 8.19485 2.01185 7.77824 2.22903 7.48412L2.30145 7.39984L6.37923 3.30317Z" fill="#6D64F1"/>
</svg>
